<?xml version="1.0" encoding="UTF-8" standalone="no"?>
<!DOCTYPE svg PUBLIC "-//W3C//DTD SVG 1.1//EN" "http://www.w3.org/Graphics/SVG/1.1/DTD/svg11.dtd">
<svg version="1.1" xmlns="http://www.w3.org/2000/svg" xmlns:xlink="http://www.w3.org/1999/xlink" preserveAspectRatio="xMidYMid meet" viewBox="147.98929845422114 52.174791914387654 360.3162901307966 29.06539833531508" width="356.32" height="25.07"><defs><path d="M474.19 65.71L180.7 65.71" id="bvWqBi1pf"></path><path d="M163.9 59.44L168.87 65.71L158.93 65.71L148.99 65.71L153.96 59.44L158.93 53.17L163.9 59.44Z" id="g5ZFwS0bv"></path><path d="M163.9 71.97L168.87 65.71L158.93 65.71L148.99 65.71L153.96 71.97L158.93 78.24L163.9 71.97Z" id="a1N0wRuR4"></path><path d="M500.34 59.44L505.31 65.71L495.36 65.71L485.42 65.71L490.39 59.44L495.36 53.17L500.34 59.44Z" id="i7cIUHZ1V"></path><path d="M500.34 71.97L505.31 65.71L495.36 65.71L485.42 65.71L490.39 71.97L495.36 78.24L500.34 71.97Z" id="b7b8LyGhn9"></path><path d="M368.63 57.62L297.62 57.62" id="bjjxAVGgo"></path></defs><g><g><g><filter id="shadow16055927" x="171.7" y="56.71" width="312.48" height="19" filterUnits="userSpaceOnUse" primitiveUnits="userSpaceOnUse"><feFlood></feFlood><feComposite in2="SourceAlpha" operator="in"></feComposite><feGaussianBlur stdDeviation="1"></feGaussianBlur><feOffset dx="1" dy="1" result="afterOffset"></feOffset><feFlood flood-color="#000000" flood-opacity="0.5"></feFlood><feComposite in2="afterOffset" operator="in"></feComposite><feMorphology operator="dilate" radius="1"></feMorphology><feComposite in2="SourceAlpha" operator="out"></feComposite></filter><path d="M474.19 65.71L180.7 65.71" id="d1tRvaNK6E" fill="none" stroke="white" filter="url(#shadow16055927)"></path></g><use xlink:href="#bvWqBi1pf" opacity="1" fill="#8176bf" fill-opacity="1"></use><g><use xlink:href="#bvWqBi1pf" opacity="1" fill-opacity="0" stroke="#474747" stroke-width="1" stroke-opacity="1"></use></g></g><g><use xlink:href="#g5ZFwS0bv" opacity="1" fill="#ffda5c" fill-opacity="1"></use></g><g><use xlink:href="#a1N0wRuR4" opacity="1" fill="#ffda5c" fill-opacity="1"></use></g><g><use xlink:href="#i7cIUHZ1V" opacity="1" fill="#ffda5c" fill-opacity="1"></use></g><g><use xlink:href="#b7b8LyGhn9" opacity="1" fill="#ffda5c" fill-opacity="1"></use></g><g><g><use xlink:href="#bjjxAVGgo" opacity="1" fill-opacity="0" stroke="#474747" stroke-width="1" stroke-opacity="1"></use></g></g></g></svg>